<mxfile host="app.diagrams.net" modified="2024-06-26T01:32:29.532Z" agent="Mozilla/5.0 (X11; Linux x86_64) AppleWebKit/537.36 (KHTML, like Gecko) Chrome/112.0.0.0 Safari/537.36" version="24.6.3" etag="L8gFd7Q8asKQ6ReHoKgT" type="github">
  <diagram name="第 1 页" id="GZIpR65GFf9UEG9LQIBq">
    <mxGraphModel>
      <root>
        <mxCell id="0" />
        <mxCell id="1" parent="0" />
      </root>
    </mxGraphModel>
  </diagram>
</mxfile>
